<svg id="Layer_3" enable-background="new 0 0 64 64" height="512" viewBox="0 0 64 64" width="512" xmlns="http://www.w3.org/2000/svg"><g><path d="m26 52h12v6h-12z" fill="#625d51"/><path d="m40 62h-16c-1.105 0-2-.895-2-2 0-1.105.895-2 2-2h16c1.105 0 2 .895 2 2 0 1.105-.895 2-2 2z" fill="#cbc3b6"/><path d="m59 52h-54c-1.657 0-3-1.343-3-3 0-1.657 1.343-3 3-3h54c1.657 0 3 1.343 3 3 0 1.657-1.343 3-3 3z" fill="#cbc3b6"/><path d="m15.836 40.001c1.492 1.701 3.366 3.086 5.531 4.014l4.633 1.985h12l4.632-1.985c5.683-2.436 9.368-8.024 9.368-14.207 0-5.987-3.458-11.436-8.875-13.985l-5.935-2.793c-1.337-.628-2.19-1.973-2.19-3.45 0-1.011.402-1.982 1.117-2.697l4.883-4.883h-18l4.883 4.883c.715.715 1.117 1.685 1.117 2.697 0 1.477-.853 2.822-2.19 3.451l-5.935 2.793c-2.117.996-3.934 2.435-5.363 4.175z" fill="#9e845f"/><path d="m33 12.183c0-3.705-.986-7.175-2.692-10.183h-7.308l4.883 4.883c.715.715 1.117 1.685 1.117 2.697 0 1.477-.853 2.822-2.19 3.451l-5.935 2.793c-2.117.996-3.934 2.435-5.363 4.175l.204 12.571c9.802-1.628 17.284-10.123 17.284-20.387z" fill="#c1a072"/><path d="m2 24h7v12h-7z" fill="#243242"/><g><path d="m33 36c1.105 0 2 .895 2 2 0 1.105-.895 2-2 2h-20l-4-4v-12l4-4h11c1.105 0 2 .895 2 2 0 1.105-.895 2-2 2h11c1.105 0 2 .895 2 2 0 1.105-.895 2-2 2h4c1.105 0 2 .895 2 2 0 1.105-.895 2-2 2h-2c1.105 0 2 .895 2 2 0 1.105-.895 2-2 2z" fill="#fadfb2"/></g><path d="m42 29.999c0-1.654-1.346-3-3-3h-1.184c.112-.314.184-.648.184-1 0-1.654-1.346-3-3-3h-8.184c.112-.314.184-.648.184-1 0-1.654-1.346-3-3-3h-11c-.266 0-.52.104-.708.292l-4 4c-.187.188-.292.442-.292.708v11.999c0 .266.105.521.292.708l4 4c.188.188.442.292.708.292h20c1.654 0 3-1.346 3-3 0-.352-.072-.686-.184-1h1.184c1.654 0 3-1.346 3-2.999 0-.395-.081-.771-.221-1.117 1.275-.345 2.221-1.501 2.221-2.883zm-3 .999h-14v2h12v.001c.552 0 1 .448 1 1.001 0 .551-.448.998-1 .998h-12v2h8c.552 0 1 .449 1 1.002 0 .551-.448.998-1 .998h-19.586l-3.414-3.414v-11.171l3.414-3.414h10.586c.552 0 1 .448 1 1.001 0 .551-.448.999-1 .999h-3v2h14c.552 0 1 .448 1 1.001 0 .551-.448.998-1 .998v.001h-10v2h14c.552 0 1 .448 1 1.001 0 .551-.449.998-1 .998z" fill="#efbe9a"/></g></svg>