<svg id="icons" enable-background="new 0 0 64 64" height="512" viewBox="0 0 64 64" width="512" xmlns="http://www.w3.org/2000/svg"><g><g><g><path d="m25 38c1.1 0 2 .9 2 2 0 1.109-.9 2-2 2-1.11 0-2-.891-2-2 0-1.1.89-2 2-2z" fill="#ffd2a6"/></g><g><path d="m17 22c1.1 0 2 .89 2 2 0 1.1-.9 2-2 2-1.11 0-2-.9-2-2 0-1.11.89-2 2-2z" fill="#ffd2a6"/></g><g><path d="m25 32h-8c4.42 0 8-3.58 8-8s-3.58-8-8-8h30c4.42 0 8 3.58 8 8s-3.58 8-8 8z" fill="#844747"/></g><g><path d="m17 29c2.76 0 5-2.24 5-5s-2.24-5-5-5-5 2.24-5 5 2.24 5 5 5zm0-13c4.42 0 8 3.58 8 8s-3.58 8-8 8-8-3.58-8-8 3.58-8 8-8z" fill="#ffd2a6"/></g><g><path d="m30 40c0-2.76-2.24-5-5-5s-5 2.24-5 5c0 2.77 2.24 5 5 5s5-2.23 5-5zm-5-8c4.42 0 8 3.58 8 8s-3.58 8-8 8-8-3.58-8-8 3.58-8 8-8z" fill="#ffd2a6"/></g><g><path d="m9 45c2.76 0 5-2.23 5-5 0-2.76-2.24-5-5-5s-5 2.24-5 5c0 2.77 2.24 5 5 5zm0-13c4.42 0 8 3.58 8 8s-3.58 8-8 8-8-3.58-8-8 3.58-8 8-8z" fill="#ffd2a6"/></g><g><path d="m55 32c4.42 0 8 3.58 8 8s-3.58 8-8 8h-30c4.42 0 8-3.58 8-8s-3.58-8-8-8h22z" fill="#965353"/></g><g><path d="m9 38c1.11 0 2 .9 2 2 0 1.109-.89 2-2 2-1.1 0-2-.891-2-2 0-1.1.9-2 2-2z" fill="#ffd2a6"/></g><g><path d="m27 40c0-1.1-.9-2-2-2-1.11 0-2 .9-2 2 0 1.109.89 2 2 2 1.1 0 2-.891 2-2zm-2-5c2.76 0 5 2.24 5 5 0 2.77-2.24 5-5 5s-5-2.23-5-5c0-2.76 2.24-5 5-5z" fill="#f7c292"/></g><g><path d="m9 48c4.42 0 8-3.58 8-8 0 4.42 3.58 8 8 8z" fill="#773e3e"/></g><g><path d="m22 24c0 2.76-2.24 5-5 5s-5-2.24-5-5 2.24-5 5-5 5 2.24 5 5zm-5 2c1.1 0 2-.9 2-2 0-1.11-.9-2-2-2-1.11 0-2 .89-2 2 0 1.1.89 2 2 2z" fill="#f7c292"/></g><g><path d="m11 40c0-1.1-.89-2-2-2-1.1 0-2 .9-2 2 0 1.109.9 2 2 2 1.11 0 2-.891 2-2zm-2-5c2.76 0 5 2.24 5 5 0 2.77-2.24 5-5 5s-5-2.23-5-5c0-2.76 2.24-5 5-5z" fill="#f7c292"/></g><g><path d="m9 32h8 8c-4.42 0-8 3.58-8 8 0-4.42-3.58-8-8-8z" fill="#773e3e"/></g></g><g><g><path d="m47.994 37.998h-11c-.553 0-1-.447-1-1s.447-1 1-1h11c.553 0 1 .447 1 1s-.447 1-1 1z" fill="#844747"/></g><g><path d="m57 43.997h-9c-.553 0-1-.447-1-1s.447-1 1-1h9c.553 0 1 .447 1 1s-.447 1-1 1z" fill="#844747"/></g><g><path d="m39.986 21.989h-11c-.553 0-1-.448-1-1s.447-1 1-1h11c.553 0 1 .448 1 1s-.447 1-1 1z" fill="#773e3e"/></g><g><path d="m48.992 27.985h-9c-.553 0-1-.448-1-1s.447-1 1-1h9c.553 0 1 .448 1 1s-.447 1-1 1z" fill="#773e3e"/></g></g></g></svg>