<svg height="512pt" viewBox="0 -31 512 512" width="512pt" xmlns="http://www.w3.org/2000/svg"><path d="m90.042969 176.550781h-59.171875v52.964844h66.78125" fill="#7f8284"/><path d="m177.515625 176.550781h174.625v52.964844h-174.625zm0 0" fill="#7f8284"/><path d="m494.34375 317.792969-100.78125 8.828125-102.253906-8.828125 8.511718-29.78125c5.414063-18.949219 22.730469-32.011719 42.4375-32.011719l52.410157-8.828125 48.726562 8.828125c19.707031 0 37.027344 13.0625 42.441407 32.011719zm0 0" fill="#3f5c6c"/><path d="m335.449219 0h-44.140625c-4.875 0-8.824219 3.953125-8.824219 8.828125v44.136719c0 4.875 3.949219 8.828125 8.824219 8.828125h35.3125" fill="#3b97d3"/><path d="m511.824219 185.378906c.035156 21.441406-2.332031 42.820313-7.0625 63.734375-.902344 4.046875-4.503907 6.917969-8.652344 6.886719h-169.488281c-4.871094-.015625-8.8125-3.957031-8.828125-8.828125v-247.171875h24.453125c12.988281.00390625 25.84375 2.644531 37.78125 7.769531 13.605468 5.78125 25.667968 14.671875 35.222656 25.953125 9.59375 11.253906 16.453125 24.578125 20.039062 38.929688 3.449219 13.886718 6.1875 27.941406 8.207032 42.105468h52.613281c4.148437-.03125 7.75 2.839844 8.652344 6.886719 4.730469 20.914063 7.097656 42.292969 7.0625 63.734375zm0 0" fill="#2980ba"/><path d="m460.09375 176.285156-9.535156-61.527344h1.765625c.355469 2.472657.707031 4.945313.972656 7.414063zm0 0" fill="#285680"/><path d="m443.496094 114.757812h17.65625c.355468 2.121094.617187 4.238282.882812 6.355469l6.796875 54.378907c.582031 4.824218-2.855469 9.210937-7.679687 9.800781-.347656.070312-.703125.101562-1.058594.085937-4.464844.007813-8.226562-3.332031-8.738281-7.769531l-.175781-1.585937-6.621094-52.789063c-.355469-2.824219-.707032-5.652344-1.148438-8.476563" fill="#285680"/><path d="m202.738281 61.792969h35.308594c4.875 0 8.828125-3.953125 8.828125-8.828125v-44.136719c0-4.875-3.953125-8.828125-8.828125-8.828125h-44.136719" fill="#3b97d3"/><path d="m211.566406 114.757812v132.414063c0 4.875-3.953125 8.828125-8.828125 8.828125h-97.105469c-13.671874 0-19.535156-19.972656-22.261718-30.382812-4.304688-20.738282-5.203125-42.039063-2.660156-63.0625 1.722656-23.398438 5.265624-46.625 10.59375-69.472657 8.261718-36.308593 23.875-69.121093 60.0625-84.429687 14.25-5.429688 29.332031-8.355469 44.578124-8.652344h15.625" fill="#2980ba"/><path d="m291.308594 317.792969h211.863281c4.875 0 8.828125 3.953125 8.828125 8.828125v39.722656h-238.34375v-30.894531c0-9.75 7.902344-17.65625 17.652344-17.65625zm0 0" fill="#35495e"/><path d="m8.828125 81.480469h35.308594v243.109375h-35.308594zm0 0" fill="#95a5a5"/><path d="m353.101562 79.449219c-4.875 0-8.824218-3.953125-8.824218-8.828125v-26.484375c0-4.875 3.949218-8.828125 8.824218-8.828125 4.878907 0 8.828126 3.953125 8.828126 8.828125v26.484375c0 4.875-3.949219 8.828125-8.828126 8.828125zm0 0" fill="#84b5cb"/><path d="m353.101562 220.691406c-4.875 0-8.824218-3.953125-8.824218-8.828125v-105.933593c0-4.875 3.949218-8.828126 8.824218-8.828126 4.878907 0 8.828126 3.953126 8.828126 8.828126v105.933593c0 4.875-3.949219 8.828125-8.828126 8.828125zm0 0" fill="#84b5cb"/><path d="m247.171875 361.929688h264.828125v79.449218c0 4.875-3.953125 8.828125-8.828125 8.828125h-264.828125c-4.875 0-8.828125-3.953125-8.828125-8.828125v-61.792968c0-9.75 7.90625-17.65625 17.65625-17.65625zm0 0" fill="#cf976a"/><g fill="#7f8c8d"><path d="m52.964844 61.792969c0 14.625-11.855469 26.484375-26.480469 26.484375-14.628906 0-26.484375-11.859375-26.484375-26.484375s11.855469-26.484375 26.484375-26.484375c14.625 0 26.480469 11.859375 26.480469 26.484375zm0 0"/><path d="m52.964844 344.277344c0 14.625-11.855469 26.480468-26.480469 26.480468-14.628906 0-26.484375-11.855468-26.484375-26.480468 0-14.628906 11.855469-26.484375 26.484375-26.484375 14.625 0 26.480469 11.855469 26.480469 26.484375zm0 0"/></g></svg>